<svg width="100.071533" height="100.071655" viewBox="0 0 100.072 100.072" fill="none" xmlns="http://www.w3.org/2000/svg" xmlns:xlink="http://www.w3.org/1999/xlink">
	<desc>
			Created with Pixso.
	</desc>
	<defs/>
	<path id="Vector" d="M46.2537 98.5717C21.5371 98.5717 1.5 78.5345 1.5 53.8177C1.5 29.1007 21.5371 9.06372 46.2537 9.06372C70.9707 9.06372 91.0078 29.1007 91.0078 53.8177C91.0078 78.5345 70.9707 98.5717 46.2537 98.5717Z" stroke="#1FA8AD" stroke-opacity="1.000000" stroke-width="3.000000" stroke-linejoin="round"/>
	<path id="Vector" d="M78.7058 53.8173C78.7058 35.9235 64.1477 21.3655 46.2539 21.3655C28.3599 21.3655 13.802 35.9235 13.802 53.8173C13.802 71.7112 28.3599 86.2692 46.2539 86.2692C64.1477 86.2692 78.7058 71.7112 78.7058 53.8173Z" stroke="#1FA8AD" stroke-opacity="1.000000" stroke-width="3.000000" stroke-linejoin="round"/>
	<path id="Vector" d="M26.104 53.8176C26.104 42.7069 35.1433 33.6677 46.2537 33.6677C57.3645 33.6677 66.4038 42.7069 66.4038 53.8176C66.4038 64.9282 57.3645 73.9674 46.2537 73.9674C35.1433 73.9674 26.104 64.9282 26.104 53.8176Z" stroke="#1FA8AD" stroke-opacity="1.000000" stroke-width="3.000000" stroke-linejoin="round"/>
	<path id="Vector" d="M38.406 53.8174C38.406 49.49 41.9268 45.9695 46.2539 45.9695C50.5811 45.9695 54.1018 49.49 54.1018 53.8174C54.1018 58.1447 50.5811 61.6652 46.2539 61.6652C41.9268 61.6652 38.406 58.1447 38.406 53.8174Z" stroke="#1FA8AD" stroke-opacity="1.000000" stroke-width="3.000000" stroke-linejoin="round"/>
	<path id="Vector" d="M46.2539 53.8177L95.1597 4.91199" stroke="#1FA8AD" stroke-opacity="1.000000" stroke-width="3.000000" stroke-linejoin="round" stroke-linecap="round"/>
	<path id="Vector" d="M77.925 11.5233C77.7163 11.7319 77.5547 11.9825 77.4504 12.2584C77.3462 12.5344 77.3018 12.8293 77.3203 13.1238L77.8889 22.1825L89.4561 10.6154L88.9248 2.1521C88.8872 1.55652 88.165 1.28357 87.7432 1.70544L77.925 11.5233Z" stroke="#1FA8AD" stroke-opacity="1.000000" stroke-width="3.000000" stroke-linejoin="round"/>
	<path id="Vector" d="M88.5481 22.1462C88.3394 22.3549 88.0889 22.5167 87.813 22.621C87.5371 22.7252 87.2422 22.7697 86.9478 22.7512L77.8889 22.1826L89.4561 10.6155L97.9194 11.1467C98.5151 11.184 98.7878 11.9065 98.366 12.3284L88.5481 22.1462Z" stroke="#1FA8AD" stroke-opacity="1.000000" stroke-width="3.000000" stroke-linejoin="round"/>
</svg>
