<svg width="200.000000" height="48.000000" viewBox="0 0 200 48" fill="none" xmlns="http://www.w3.org/2000/svg" xmlns:xlink="http://www.w3.org/1999/xlink">
	<desc>
			Created with Pixso.
	</desc>
	<defs>
		<clipPath id="clip3_412">
			<rect id="logo" width="200.000000" height="48.000000" fill="white" fill-opacity="0"/>
		</clipPath>
	</defs>
	<rect id="logo" width="200.000000" height="48.000000" fill="#FFFFFF" fill-opacity="0"/>
	<g clip-path="url(#clip3_412)">
		<path id="Vector" d="M159.006 8.16626C160.82 5.74731 164.814 5.52002 166.807 7.78735C167.292 9.11377 166.72 10.5095 166.348 11.7854C164.944 11.8547 163.54 11.8862 162.136 11.8547C162.087 10.2063 163.428 9.32837 164.957 9.54956L164.919 7.83789C161.323 7.67993 158.447 11.3938 159.174 14.918C161.534 15.2969 164.043 15.7896 166.335 14.8042C165.975 16.1116 165.634 17.4316 165.335 18.7578C163.36 18.7578 161.354 18.6758 159.422 19.1875C158.23 23.52 158.18 28.0989 156.888 32.4062C155.559 32.3433 154.236 32.3052 152.907 32.2737C153.404 26.8989 155.255 21.5369 154.211 16.1116C152.932 16.4084 151.932 15.4358 150.82 15.0254C153.093 15.4231 155.547 16.0928 157.689 14.8169C155.901 12.6821 157.515 9.92212 159.006 8.16626Z" fill="#FFFFFF" fill-opacity="1.000000" fill-rule="nonzero"/>
		<path id="Vector" d="M15.199 12.1958C16.323 8.88013 19.6833 6.87793 23.0249 6.72021C26.3665 6.56226 30.0684 6.7644 32.6335 9.09473C33.1677 10.9895 32.584 13.0232 32.4102 14.9622L30.2983 14.9622C29.6025 13.7874 29.0559 12.3032 27.6895 11.7539C25.3293 11.0527 22.4971 11.217 20.7642 13.1938C21.0398 14.2253 21.573 15.1667 22.3118 15.927C23.0508 16.6873 23.9705 17.2402 24.9814 17.5327C27.646 18.6001 30.5715 19.9517 31.8137 22.7937C32.584 26.5833 30.4038 31.0044 26.5776 32.04C21.6179 33.397 16.3379 32.811 11.7827 30.3979C12.2671 27.998 12.8635 25.6233 13.3789 23.2295C16.3293 25.6042 19.6213 28.3896 23.6895 27.6885C25.6958 27.8274 26.6833 24.998 25.23 23.7222C23.2859 22.1055 20.7703 21.4739 18.584 20.2737C15.7268 18.9475 13.938 15.2339 15.199 12.1958Z" fill="#FFFFFF" fill-opacity="1.000000" fill-rule="nonzero"/>
		<path id="Vector" d="M37.5962 7.07983C39.5093 7.04834 41.416 7.07983 43.3291 7.07983C41.7141 15.4358 40.9937 23.9431 39.2483 32.2737C37.592 32.2737 35.9524 32.2947 34.3291 32.3369C35.7017 23.9558 36.4595 15.4863 37.5962 7.07983Z" fill="#FFFFFF" fill-opacity="1.000000" fill-rule="nonzero"/>
		<path id="Vector" d="M47.677 7.21899C49.2361 7.14941 50.8508 6.82104 52.3789 7.21899C52.7515 7.93262 53.0496 8.67798 53.3726 9.41675C56.7205 10.5474 57.1677 14.6147 58.5093 17.438C59.0435 13.9832 59.354 10.4905 60.0061 7.04834C61.4141 7.04834 62.824 7.06738 64.2361 7.10522C63.1179 12.8906 62.1987 18.7073 61.4099 24.5432C61.1428 27.0696 60.8757 29.7285 61.8696 32.1221L58.4348 31.9768C57.5422 30.5762 56.8501 29.0535 56.3789 27.4548C55.1367 22.8694 52.8882 18.5432 52.6521 13.7241C51.5171 19.7717 50.7905 25.8914 50.4783 32.04C48.8325 32.2854 47.1724 32.4182 45.5093 32.438C45.9626 24 47.4844 15.6631 47.677 7.21899Z" fill="#FFFFFF" fill-opacity="1.000000" fill-rule="nonzero"/>
		<path id="Vector" d="M66.8074 7.13672C70.8323 7.13672 74.8818 6.85889 78.8757 7.18091C81.1802 7.35791 83.7639 8.8042 84.0371 11.3621C84.6584 15.7832 83.6895 20.2737 82.5588 24.543C81.6335 27.7009 79.8323 31.3137 76.3477 31.9832C72.0745 32.7346 67.7141 32.2673 63.3975 32.3557C65.2173 24.0505 65.5342 15.5242 66.8074 7.13672ZM71.2048 11.6272C71.1179 17.4504 70.2422 23.2168 69.6584 28.9956C71.9067 28.9326 74.7639 28.939 75.8696 26.5137C77.5361 22.7192 78.1917 18.5459 77.77 14.4126C77.2546 11.4568 73.6211 10.6548 71.2048 11.6272Z" fill="#FFFFFF" fill-opacity="1.000000" fill-rule="nonzero"/>
		<path id="Vector" d="M100.888 7.04199C102.627 7.09888 104.36 7.15576 106.093 7.23145C105.075 15.5115 103.895 23.7725 102.727 32.0273C100.955 32.3081 99.1533 32.3401 97.3728 32.1221C95.4102 27.1831 93.1243 22.2693 92.4846 16.9263C90.8137 21.9788 91.1057 27.4294 89.6089 32.5073C88.2461 32.6399 86.8728 32.6145 85.5156 32.4314C86.1367 24 87.3789 15.6252 88.4224 7.23779C90.2051 7.27563 91.9878 7.28833 93.7703 7.35767C95.292 12.8652 97.1553 18.2842 98.2361 23.9114C99.6709 18.3914 100.087 12.6819 100.888 7.04199Z" fill="#FFFFFF" fill-opacity="1.000000" fill-rule="nonzero"/>
		<path id="Vector" d="M110.77 7.2063C114.957 7.28833 119.137 7.13672 123.323 7.25049C123.323 8.56421 123.267 9.88428 123.249 11.198C120.646 11.6841 117.994 11.4695 115.373 11.7158C115.168 13.8 114.876 15.8716 114.621 17.9495C117.348 18.0693 120.074 18.1326 122.801 18.1958C122.677 19.5811 122.547 20.96 122.41 22.3325C119.758 22.5283 117.112 22.2314 114.466 22.3325C113.559 25.6421 113.739 29.2295 112.671 32.5452C110.87 32.4905 109.068 32.4231 107.267 32.3433C108.789 24.0315 109.938 15.6252 110.77 7.2063Z" fill="#FFFFFF" fill-opacity="1.000000" fill-rule="nonzero"/>
		<path id="Vector" d="M127.224 7.26318C128.917 7.22534 130.613 7.2063 132.311 7.2063C131.503 14.6462 129.826 22.0168 129.863 29.5391C134.034 29.7693 138.208 29.1553 142.143 27.7327C143.528 27.3411 143.72 25.5222 143.105 24.417C140.994 22.6738 137.988 22.2317 136.273 19.939C134.888 18.2778 135.118 15.9285 135.652 13.9705C136.422 10.3264 139.652 7.11792 143.441 7.13062C145.745 7.04834 148.192 7.06738 150.273 8.26733C151.938 9.14526 154.155 10.3579 153.677 12.6885C152.205 13.0674 150.776 13.9517 149.236 13.8064C148.168 13.1748 147.28 12.1643 146.012 11.9558C143.95 11.7664 142.031 12.8779 140.621 14.3179C140.807 15.4736 140.671 16.8442 141.609 17.7349C143.882 19.7874 147.82 19.699 149.149 22.8252C150.161 25.9832 149.342 30.6189 145.913 31.8884C138.64 32.9053 131.273 32.0715 123.975 31.9453C124.981 23.6907 125.615 15.3979 127.224 7.26318Z" fill="#FFFFFF" fill-opacity="1.000000" fill-rule="nonzero"/>
		<path id="Vector" d="M169.72 12.1201C170.652 11.0906 172.286 11.6084 173.522 11.5642C174.143 15.7705 174.329 20.0906 175.609 24.158C176.95 20.6526 178.826 17.1348 178.379 13.2378C177.87 12.7454 177.373 12.259 176.882 11.76C177.839 11.5391 178.801 11.3306 179.77 11.1284C180.033 13.3201 180.091 15.532 179.944 17.7346C180.64 15.4106 181.131 11.4189 184.249 11.6274C181.548 17.1809 179.226 22.9165 177.298 28.7937C176.603 30.9915 175.82 33.3284 173.988 34.8379C171.839 36.7327 168.801 36.9221 166.137 36.3347C166.342 35.438 166.565 34.541 166.795 33.6506C168.037 33.9663 169.472 34.8821 170.702 34.061C172.354 33.0569 172.652 30.8147 172.242 29.0527C171.124 23.4631 169.565 17.8799 169.72 12.1201Z" fill="#FFFFFF" fill-opacity="1.000000" fill-rule="nonzero"/>
		<path id="Vector" d="M48.9441 35.6716C50.9502 36.4927 53.1367 36.3032 55.2546 36.3538C63.3291 36.3032 71.4409 36.1895 79.5342 36.2527C80.499 36.1855 81.4565 36.4648 82.2397 37.042C83.0229 37.6189 83.582 38.4573 83.8198 39.4106C73.6831 39.2148 63.5403 39.5496 53.385 39.3347C51.5962 39.5305 50.4473 38.0715 49.292 36.9475C49.2173 36.6316 49.0684 36 48.9441 35.6716Z" fill="#FFFFFF" fill-opacity="1.000000" fill-rule="nonzero"/>
		<path id="Vector" d="M92 36.9033C99.6025 36.1265 107.267 36.7896 114.895 36.4106C113.801 37.7937 112.547 39.5686 110.615 39.6255C106.888 39.739 103.106 39.6255 99.354 39.5686C96.6521 39.6255 94.3105 38.116 92 36.9033Z" fill="#FFFFFF" fill-opacity="1.000000" fill-rule="nonzero"/>
	</g>
</svg>
