<svg width="79.000000" height="79.000000" viewBox="0 0 79 79" fill="none" xmlns="http://www.w3.org/2000/svg" xmlns:xlink="http://www.w3.org/1999/xlink">
	<desc>
			Created with Pixso.
	</desc>
	<defs>
		<clipPath id="clip3_225">
			<rect id="icon-fs" width="40.000000" height="40.000000" transform="translate(21.000000 20.000000)" fill="white" fill-opacity="0"/>
		</clipPath>
		<clipPath id="clip3_226">
			<rect id="service-item__icon-wrapper" rx="39.500000" width="79.000000" height="79.000000" fill="white" fill-opacity="0"/>
		</clipPath>
	</defs>
	<rect id="service-item__icon-wrapper" rx="39.500000" width="79.000000" height="79.000000" fill="#FFFFFF" fill-opacity="1.000000"/>
	<g clip-path="url(#clip3_226)">
		<rect id="icon-fs" width="40.000000" height="40.000000" transform="translate(21.000000 20.000000)" fill="#FFFFFF" fill-opacity="0"/>
		<g clip-path="url(#clip3_225)">
			<path id="Vector" d="M32.5254 37.0864L58.2661 37.0864C58.625 37.0862 58.9802 37.157 59.3115 37.2947C59.6431 37.4324 59.9438 37.6343 60.1968 37.8887L60.1968 37.8933C60.4509 38.1458 60.6523 38.4458 60.79 38.7761C60.928 39.1067 60.999 39.4612 60.9993 39.8193L60.9993 57.2664C60.9993 58.0164 60.6912 58.7021 60.1968 59.1965C59.9438 59.4509 59.6431 59.6528 59.3118 59.7905C58.9805 59.9282 58.625 59.999 58.2661 59.999L32.5254 59.999C32.1665 59.9988 31.8115 59.9277 31.4802 59.79C31.1489 59.6523 30.8481 59.4507 30.595 59.1965C30.3406 58.9436 30.1387 58.6428 30.001 58.3115C29.8633 57.9805 29.7925 57.6252 29.7925 57.2664L29.7925 39.8193C29.7925 39.0688 30.1003 38.3833 30.595 37.8887C30.8481 37.6345 31.1492 37.4331 31.4802 37.2954C31.8115 37.1577 32.1665 37.0867 32.5254 37.0864ZM58.2661 38.3357L32.5254 38.3357C32.3308 38.3362 32.1384 38.3752 31.959 38.4504C31.7795 38.5254 31.6167 38.6353 31.48 38.7737C31.3416 38.9104 31.2317 39.0732 31.1565 39.2527C31.0813 39.4321 31.0425 39.6248 31.0417 39.8193L31.0417 57.2664C31.0417 57.6743 31.2109 58.0471 31.48 58.3162C31.6169 58.4536 31.78 58.563 31.9592 58.6372C32.1387 58.7117 32.3311 58.7498 32.5254 58.7495L58.2661 58.7495C58.4612 58.7498 58.6541 58.7117 58.8342 58.6372C59.0144 58.563 59.178 58.4539 59.3159 58.3162C59.4536 58.1782 59.563 58.0146 59.6375 57.8345C59.7119 57.6543 59.75 57.4614 59.75 57.2664L59.75 39.8193C59.7502 39.6243 59.7119 39.4314 59.6375 39.2512C59.563 39.071 59.4539 38.9075 59.3159 38.7695L59.3159 38.7739C59.0378 38.4946 58.6604 38.3369 58.2661 38.3357Z" fill="#1FA8AD" fill-opacity="1.000000" fill-rule="nonzero"/>
			<path id="Vector" d="M40.1772 31.877L50.6187 31.877C51.2129 31.877 51.7593 32.1199 52.1499 32.5144C52.5403 32.9092 52.7876 33.4517 52.7876 34.0457L52.7876 38.3357L48.9011 38.3357L48.9011 35.6814L41.8953 35.6814L41.8953 38.3359L38.0083 38.3359L38.0083 34.0457C38.0083 33.761 38.0645 33.4788 38.1733 33.2156C38.2825 32.9526 38.4421 32.7134 38.6436 32.512C38.845 32.3105 39.0842 32.1509 39.3474 32.042C39.6106 31.9329 39.8926 31.877 40.1772 31.877ZM50.6184 33.1262L40.1772 33.1262C39.9255 33.1262 39.6958 33.23 39.5264 33.3994C39.355 33.5708 39.2583 33.8032 39.2581 34.0457L39.2581 37.0864L40.6458 37.0864L40.6458 34.4319L50.1504 34.4319L50.1504 37.0867L51.5383 37.0867L51.5383 34.0459C51.5383 33.7942 51.4343 33.5645 51.2695 33.3997L51.2649 33.3997C51.1809 33.3132 51.0803 33.2444 50.9692 33.1975C50.8582 33.1504 50.7388 33.1262 50.6184 33.1262Z" fill="#1FA8AD" fill-opacity="1.000000" fill-rule="nonzero"/>
			<path id="Vector" d="M27.9014 53.9048C28.2441 53.9048 28.5259 54.1819 28.5259 54.5291C28.5251 54.6943 28.459 54.8528 28.342 54.9697C28.2251 55.0867 28.0667 55.1526 27.9014 55.1533L22.874 55.1533C22.3623 55.1533 21.8938 54.9409 21.551 54.6028L21.551 54.5984C21.3765 54.425 21.238 54.2188 21.1436 53.9917C21.0491 53.7646 21.0002 53.5212 21 53.2754L21 21.8738C21 21.3618 21.2124 20.8936 21.551 20.551C21.7244 20.3765 21.9304 20.238 22.1575 20.1436C22.3845 20.0491 22.6282 20.0002 22.874 20L40.4463 20C40.7153 20 40.9668 20.0522 41.2017 20.1562C41.437 20.2649 41.6492 20.418 41.8262 20.6072L46.5415 25.6521C46.5544 25.6653 46.5632 25.6782 46.5762 25.6912C46.7205 25.8535 46.835 26.04 46.9143 26.2422C46.9946 26.4587 47.0359 26.688 47.0359 26.9189L47.0359 29.9814C47.0359 30.1472 46.97 30.3062 46.8528 30.4231C46.7358 30.5403 46.5769 30.6062 46.4111 30.6062C46.3289 30.6067 46.2473 30.5908 46.1711 30.5596C46.0947 30.5283 46.0254 30.4824 45.967 30.4246C45.9087 30.3665 45.8623 30.2974 45.8306 30.2214C45.7988 30.1455 45.7825 30.064 45.7822 29.9814L45.7822 26.9189C45.7822 26.8323 45.7737 26.7544 45.7476 26.6846C45.7217 26.6279 45.6897 26.574 45.6521 26.5242C45.6436 26.5156 45.6343 26.5112 45.626 26.5024L40.915 21.4575C40.8528 21.3916 40.7793 21.3372 40.6982 21.2969C40.6182 21.2644 40.5327 21.2483 40.4465 21.2493L22.874 21.2493C22.7922 21.2493 22.7112 21.2659 22.636 21.2979C22.5605 21.3298 22.4927 21.377 22.436 21.436L22.4316 21.4316C22.3188 21.5439 22.2493 21.7046 22.2493 21.8738L22.2493 53.2754C22.2493 53.4487 22.3188 53.605 22.4316 53.7178L22.436 53.7222C22.5488 53.8311 22.7046 53.9048 22.874 53.9048L27.9014 53.9048Z" fill="#1FA8AD" fill-opacity="1.000000" fill-rule="nonzero"/>
			<path id="Vector" d="M43.1316 48.4739L32.4128 46.439C31.6885 46.3044 31.02 45.988 30.5391 45.5063C30.0789 45.0466 29.7925 44.4438 29.7925 43.7192L31.042 43.7192C31.042 44.0879 31.1897 44.3916 31.4238 44.626C31.7231 44.9207 32.1614 45.1248 32.6428 45.2158L43.3616 47.2502L43.1316 48.4739ZM60.999 43.7192C60.999 44.4436 60.7129 45.0422 60.2529 45.502L60.2529 45.5063C59.7712 45.988 59.1035 46.3049 58.3835 46.439L47.6643 48.4907L47.4304 47.2676L58.1492 45.2158C58.635 45.1204 59.0732 44.9211 59.3723 44.626C59.4932 44.5083 59.5889 44.3672 59.6538 44.2112C59.7188 44.0554 59.7512 43.8879 59.7498 43.7192L60.999 43.7192ZM36.9197 25.5825C37.2666 25.5825 37.5444 25.8604 37.5444 26.2073C37.5444 26.373 37.4785 26.5317 37.3613 26.6489C37.2441 26.7661 37.0854 26.832 36.9197 26.832L28.2009 26.832C28.1172 26.8347 28.0339 26.8206 27.9558 26.7903C27.8777 26.76 27.8064 26.7144 27.7463 26.6562C27.6863 26.5979 27.6384 26.5281 27.6057 26.4512C27.573 26.374 27.5562 26.291 27.5562 26.2073C27.5562 26.1235 27.573 26.0408 27.6057 25.9636C27.6384 25.8865 27.6863 25.8167 27.7463 25.7585C27.8064 25.7002 27.8777 25.6545 27.9558 25.6245C28.0339 25.5942 28.1172 25.5801 28.2009 25.5825L36.9197 25.5825ZM25.2246 25.5825C25.572 25.5825 25.854 25.8604 25.854 26.2073C25.853 26.3735 25.7864 26.5325 25.6685 26.6497C25.5505 26.7666 25.3909 26.8323 25.2246 26.832L24.7566 26.832C24.4136 26.832 24.1316 26.55 24.1316 26.2073C24.1316 26.0415 24.1975 25.8828 24.3147 25.7656C24.4319 25.6484 24.5908 25.5825 24.7566 25.5825L25.2246 25.5825ZM32.8115 31.2524C33.1543 31.2524 33.4363 31.5339 33.4363 31.877C33.4363 32.2239 33.1543 32.5015 32.8115 32.5015L28.2007 32.5015C28.0393 32.4951 27.8865 32.4265 27.7744 32.3101C27.6624 32.1936 27.5999 32.0383 27.5999 31.877C27.5999 31.7153 27.6624 31.5601 27.7744 31.4436C27.8865 31.3271 28.0393 31.2585 28.2007 31.2524L32.8115 31.2524ZM25.2251 31.2524C25.572 31.2524 25.854 31.5339 25.854 31.877C25.854 32.2239 25.5723 32.5015 25.2251 32.5015L24.7566 32.5015C24.5908 32.5015 24.4321 32.4355 24.3149 32.3186C24.1978 32.2014 24.1318 32.0427 24.1316 31.877C24.1316 31.5342 24.4136 31.2524 24.7566 31.2524L25.2251 31.2524ZM36.9197 28.4194C37.2666 28.4194 37.5444 28.6973 37.5444 29.0442C37.5444 29.21 37.4785 29.3687 37.3613 29.4858C37.2441 29.603 37.0854 29.6687 36.9197 29.6689L28.2009 29.6689C28.1172 29.6716 28.0339 29.6572 27.9558 29.6272C27.8777 29.5969 27.8064 29.5513 27.7463 29.4932C27.6863 29.4348 27.6384 29.365 27.6057 29.2878C27.573 29.2109 27.5562 29.1279 27.5562 29.0442C27.5562 28.9604 27.573 28.8777 27.6057 28.8005C27.6384 28.7234 27.6863 28.6536 27.7463 28.5952C27.8064 28.5371 27.8777 28.4915 27.9558 28.4612C28.0339 28.4312 28.1172 28.4167 28.2009 28.4194L36.9197 28.4194ZM25.2246 28.4194C25.572 28.4194 25.854 28.6973 25.854 29.0442C25.853 29.2104 25.7861 29.3694 25.6682 29.4863C25.5503 29.6035 25.3909 29.6689 25.2246 29.6689L24.7566 29.6689C24.4136 29.6689 24.1316 29.387 24.1316 29.0442C24.1316 28.8784 24.1975 28.7195 24.3147 28.6025C24.4319 28.4854 24.5908 28.4194 24.7566 28.4194L25.2246 28.4194ZM41.0884 20.2297L46.7751 26.4026C46.8865 26.5247 46.9451 26.6858 46.9377 26.8508C46.9304 27.0159 46.8579 27.1714 46.7361 27.283C46.6216 27.3889 46.4714 27.4478 46.3154 27.448L42.3984 27.448C42.0808 27.4478 41.7664 27.385 41.4729 27.2629C41.1797 27.1409 40.9133 26.9619 40.6895 26.7368L40.6504 26.6978C40.2185 26.2488 39.9775 25.6501 39.9778 25.0273L39.9778 20.6248C39.978 20.4592 40.0437 20.3003 40.1611 20.1831C40.2783 20.0659 40.4373 20.0002 40.6028 20.0002C40.7976 20.0002 40.9712 20.0911 41.0884 20.2297ZM44.8928 26.199L41.2273 22.2251L41.2273 25.0276C41.2268 25.3257 41.3401 25.6125 41.5442 25.8298L41.5703 25.856C41.6792 25.9648 41.8081 26.051 41.9502 26.1099C42.0925 26.1685 42.2446 26.1987 42.3984 26.1985L44.8928 26.199ZM49.4041 23.366C49.3879 23.4463 49.356 23.5227 49.3098 23.5906C49.2639 23.6584 49.2048 23.7163 49.1362 23.7612C49.0676 23.8062 48.991 23.8367 48.9104 23.8516C48.8298 23.8665 48.7471 23.865 48.667 23.8477C48.5869 23.8313 48.5107 23.7996 48.4429 23.7539C48.3752 23.7083 48.3171 23.6497 48.272 23.5815C48.2268 23.5134 48.1956 23.4373 48.1799 23.3569C48.1643 23.2769 48.1648 23.1943 48.1809 23.1143L48.4197 21.9775L48.7319 20.4985C48.761 20.3577 48.8376 20.2312 48.949 20.1404C49.0605 20.0496 49.1997 19.9998 49.3435 19.9995L51.5298 19.9995C51.8462 19.9995 52.1069 20.2339 52.1501 20.5417L52.6096 22.728C52.9307 22.8191 53.2432 22.9277 53.5466 23.0532C53.8547 23.1792 54.1538 23.3267 54.4399 23.4873L56.3533 22.238C56.4724 22.1609 56.6145 22.1272 56.7559 22.1423C56.897 22.1572 57.0288 22.2202 57.1294 22.3206L57.134 22.3206L57.9062 23.0925C57.9148 23.1057 57.9277 23.1145 57.937 23.1274L58.6785 23.8691C58.895 24.0818 58.9172 24.4202 58.748 24.6628L57.5115 26.5583C57.6758 26.8469 57.822 27.1455 57.9497 27.4519C58.0713 27.7554 58.1797 28.0679 58.2708 28.3889L60.5002 28.8618C60.647 28.8904 60.7783 28.9712 60.8701 29.0891C60.9619 29.207 61.0078 29.3542 60.9995 29.5037L60.9995 31.6558C60.9995 31.9724 60.7654 32.2371 60.4573 32.2761L58.271 32.7358C58.1816 33.0537 58.0745 33.3667 57.95 33.6726C57.7712 34.1042 57.5549 34.5195 57.3037 34.9136C57.2605 34.9836 57.2034 35.0442 57.1365 35.092C57.0693 35.1399 56.9934 35.1738 56.9131 35.1919C56.8328 35.21 56.7495 35.2122 56.6685 35.1978C56.5874 35.1833 56.51 35.1531 56.4407 35.1086C56.301 35.0193 56.2024 34.8782 56.1665 34.7163C56.1306 34.5544 56.1606 34.385 56.2498 34.2451C56.6685 33.5872 56.9722 32.8625 57.1479 32.1025C57.1685 31.979 57.2258 31.8645 57.3125 31.7739C57.3992 31.6833 57.5112 31.6211 57.6338 31.5952L59.75 31.1526L59.75 30.5627L59.7544 30.5627L59.7544 29.9771L57.6331 29.53C57.5161 29.5056 57.4084 29.4482 57.323 29.3643C57.2378 29.2805 57.1782 29.1741 57.1516 29.0574C57.0674 28.6716 56.9482 28.2942 56.7959 27.9299C56.6443 27.5649 56.4612 27.2136 56.249 26.8801C56.186 26.7791 56.1531 26.6624 56.1538 26.5432C56.1545 26.4243 56.1892 26.3079 56.2534 26.2075L57.4382 24.3945L57.0559 24.0085C57.0432 24.0002 57.0347 23.991 57.0212 23.978L56.605 23.5618L54.8306 24.7197C54.7297 24.7974 54.6072 24.8418 54.48 24.8472C54.3528 24.8528 54.2271 24.8188 54.1196 24.7502C53.7861 24.5383 53.4348 24.3555 53.0701 24.2036C52.7144 24.0566 52.3474 23.939 51.9724 23.8523C51.8491 23.8323 51.7349 23.7749 51.645 23.688C51.5549 23.6013 51.4937 23.489 51.4695 23.3665L51.022 21.2493L49.8462 21.2493L49.6426 22.2295L49.4041 23.366ZM50.4365 26.6934C50.0894 26.6934 49.8115 26.4155 49.8115 26.0686C49.8115 25.7217 50.0894 25.4438 50.4365 25.4438C51.8503 25.4438 53.1301 26.0166 54.0583 26.9448C54.5339 27.4197 54.9109 27.9836 55.1677 28.6045C55.4246 29.2253 55.5562 29.8909 55.5549 30.5627C55.5559 30.9302 55.5166 31.2966 55.4377 31.6558C55.3594 32.0139 55.2432 32.363 55.0913 32.6968C55.022 32.8474 54.896 32.9644 54.7407 33.0222C54.5852 33.0798 54.4133 33.0737 54.2625 33.0049C54.1885 32.9707 54.1218 32.9224 54.0664 32.8623C54.011 32.8025 53.968 32.7322 53.9399 32.6555C53.9116 32.5791 53.8989 32.4976 53.9021 32.416C53.9055 32.3345 53.9248 32.2544 53.959 32.1804C54.0715 31.9377 54.1584 31.6729 54.219 31.395C54.2756 31.1265 54.3059 30.8486 54.3059 30.5623C54.3059 29.4951 53.8723 28.5276 53.1738 27.8252C52.4473 27.1003 51.4629 26.6934 50.4365 26.6934Z" fill="#1FA8AD" fill-opacity="1.000000" fill-rule="nonzero"/>
			<path id="Vector" d="M43.3354 43.7368L47.4604 43.7368C47.7861 43.7368 48.0808 43.8711 48.2937 44.0835L48.2981 44.0876C48.5198 44.3101 48.6445 44.6113 48.645 44.9253L48.645 49.4976C48.645 50.3909 48.2808 51.2021 47.6904 51.7917C47.1052 52.3821 46.2896 52.7466 45.3958 52.7466C44.5022 52.7466 43.6909 52.3821 43.1011 51.7917C42.5151 51.2021 42.1465 50.3911 42.1465 49.4976L42.1465 44.9253C42.1465 44.5999 42.2812 44.3003 42.498 44.0876L42.498 44.0835C42.7209 43.8625 43.0217 43.738 43.3354 43.7368ZM47.3958 44.9861L43.4006 44.9861L43.4006 49.4976C43.4001 49.7595 43.4517 50.019 43.552 50.2612C43.6526 50.5032 43.8 50.7229 43.9861 50.9075C44.1707 51.0938 44.3904 51.2417 44.6321 51.3428C44.874 51.4441 45.1335 51.4966 45.3958 51.4971C45.6587 51.4971 45.9192 51.4448 46.1619 51.3435C46.4045 51.2424 46.6248 51.0942 46.8098 50.9075C47.1841 50.5334 47.3948 50.0264 47.3958 49.4976L47.3958 44.9861Z" fill="#1FA8AD" fill-opacity="1.000000" fill-rule="nonzero"/>
			<path id="Vector" d="M46.0203 49.4148C46.0203 49.7598 45.7407 50.0393 45.3958 50.0393C45.0508 50.0393 44.771 49.7598 44.771 49.4148C44.771 49.0698 45.0508 48.79 45.3958 48.79C45.7407 48.79 46.0203 49.0698 46.0203 49.4148Z" fill="#1FA8AD" fill-opacity="1.000000" fill-rule="evenodd"/>
		</g>
	</g>
</svg>
