<svg width="416.000000" height="408.000000" viewBox="0 0 416 408" fill="none" xmlns="http://www.w3.org/2000/svg" xmlns:xlink="http://www.w3.org/1999/xlink">
	<desc>
			Created with Pixso.
	</desc>
	<defs/>
	<g opacity="0.200000">
		<path id="Vector 1" d="M31 376.5L31 304.5C31 282.409 48.9087 264.5 71 264.5L138 264.5" stroke="#1A1A1A" stroke-opacity="1.000000" stroke-width="2.000000" stroke-dasharray="2 2"/>
	</g>
	<g opacity="0.200000">
		<path id="Vector 3" d="M384 376.5L384 304.5C384 282.409 366.091 264.5 344 264.5L277 264.5" stroke="#1A1A1A" stroke-opacity="1.000000" stroke-width="2.000000" stroke-dasharray="2 2"/>
	</g>
	<g opacity="0.200000">
		<path id="Vector 2" d="M31 32L31 104C31 126.091 48.9087 144 71 144L138 144" stroke="#1A1A1A" stroke-opacity="1.000000" stroke-width="2.000000" stroke-dasharray="2 2"/>
	</g>
	<g opacity="0.200000">
		<path id="Vector 4" d="M384 32L384 104C384 126.091 366.091 144 344 144L277 144" stroke="#1A1A1A" stroke-opacity="1.000000" stroke-width="2.000000" stroke-dasharray="2 2"/>
	</g>
	<circle id="Ellipse 1" cx="203.000000" cy="204.000000" r="140.000000" fill="#1FA8AD" fill-opacity="1.000000"/>
	<path id="Vector" d="M255.97 189.538C257.589 187.305 261.155 187.095 262.935 189.188C263.368 190.413 262.858 191.701 262.525 192.879C261.271 192.943 260.018 192.972 258.765 192.943C258.72 191.421 259.918 190.611 261.282 190.815L261.249 189.235C258.038 189.089 255.471 192.517 256.12 195.77C258.227 196.12 260.467 196.575 262.514 195.666C262.192 196.872 261.887 198.091 261.621 199.315C259.857 199.315 258.066 199.239 256.341 199.712C255.276 203.711 255.232 207.938 254.079 211.914C252.892 211.855 251.711 211.82 250.524 211.791C250.968 206.83 252.62 201.88 251.688 196.872C250.546 197.146 249.653 196.249 248.661 195.87C250.69 196.237 252.881 196.855 254.794 195.677C253.197 193.707 254.639 191.159 255.97 189.538Z" fill="#FFFFFF" fill-opacity="1.000000" fill-rule="nonzero"/>
	<path id="Vector" d="M127.57 193.258C128.574 190.197 131.574 188.349 134.558 188.203C137.542 188.058 140.847 188.244 143.137 190.395C143.614 192.144 143.093 194.022 142.938 195.811L141.052 195.811C140.431 194.727 139.943 193.357 138.723 192.85C136.615 192.203 134.087 192.354 132.539 194.179C132.785 195.131 133.261 196 133.921 196.702C134.581 197.404 135.402 197.914 136.305 198.184C138.684 199.169 141.296 200.417 142.405 203.041C143.093 206.539 141.146 210.62 137.73 211.576C133.302 212.828 128.587 212.287 124.52 210.06C124.953 207.844 125.485 205.652 125.946 203.443C128.58 205.635 131.519 208.206 135.151 207.559C136.943 207.687 137.824 205.075 136.527 203.898C134.791 202.405 132.545 201.822 130.593 200.714C128.042 199.49 126.445 196.062 127.57 193.258Z" fill="#FFFFFF" fill-opacity="1.000000" fill-rule="nonzero"/>
	<path id="Vector" d="M147.568 188.535C149.276 188.506 150.979 188.535 152.687 188.535C151.245 196.248 150.601 204.101 149.043 211.791C147.564 211.791 146.1 211.811 144.651 211.849C145.876 204.113 146.553 196.295 147.568 188.535Z" fill="#FFFFFF" fill-opacity="1.000000" fill-rule="nonzero"/>
	<path id="Vector" d="M156.569 188.664C157.961 188.599 159.403 188.296 160.767 188.664C161.1 189.322 161.366 190.01 161.654 190.692C164.643 191.736 165.043 195.49 166.24 198.096C166.717 194.907 166.995 191.683 167.577 188.506C168.834 188.506 170.093 188.524 171.354 188.559C170.355 193.899 169.535 199.268 168.83 204.655C168.592 206.987 168.353 209.442 169.241 211.651L166.174 211.517C165.377 210.224 164.759 208.819 164.338 207.343C163.229 203.11 161.222 199.117 161.011 194.668C159.997 200.251 159.349 205.9 159.07 211.575C157.6 211.802 156.118 211.924 154.633 211.943C155.038 204.154 156.397 196.458 156.569 188.664Z" fill="#FFFFFF" fill-opacity="1.000000" fill-rule="nonzero"/>
	<path id="Vector" d="M173.649 188.588C177.243 188.588 180.859 188.331 184.425 188.628C186.482 188.792 188.789 190.127 189.033 192.488C189.588 196.569 188.723 200.714 187.713 204.655C186.887 207.57 185.279 210.905 182.167 211.523C178.352 212.216 174.459 211.785 170.605 211.867C172.23 204.2 172.512 196.33 173.649 188.588ZM177.576 192.733C177.498 198.108 176.716 203.431 176.195 208.765C178.202 208.707 180.753 208.713 181.74 206.474C183.229 202.972 183.814 199.119 183.438 195.304C182.977 192.575 179.733 191.835 177.576 192.733Z" fill="#FFFFFF" fill-opacity="1.000000" fill-rule="nonzero"/>
	<path id="Vector" d="M204.079 188.5C205.632 188.553 207.179 188.605 208.726 188.675C207.817 196.318 206.763 203.944 205.72 211.564C204.138 211.823 202.53 211.852 200.94 211.651C199.188 207.092 197.147 202.556 196.575 197.624C195.084 202.288 195.344 207.319 194.008 212.007C192.791 212.129 191.565 212.106 190.353 211.937C190.908 204.154 192.017 196.423 192.948 188.681C194.54 188.716 196.132 188.728 197.723 188.792C199.082 193.875 200.746 198.878 201.711 204.072C202.992 198.977 203.363 193.706 204.079 188.5Z" fill="#FFFFFF" fill-opacity="1.000000" fill-rule="nonzero"/>
	<path id="Vector" d="M212.902 188.652C216.64 188.728 220.372 188.588 224.11 188.693C224.11 189.905 224.06 191.124 224.043 192.336C221.72 192.785 219.352 192.587 217.011 192.814C216.828 194.738 216.568 196.651 216.34 198.569C218.775 198.679 221.209 198.738 223.644 198.796C223.533 200.075 223.417 201.348 223.295 202.615C220.927 202.795 218.564 202.521 216.202 202.615C215.392 205.669 215.553 208.981 214.599 212.042C212.991 211.991 211.382 211.929 209.774 211.855C211.133 204.183 212.159 196.423 212.902 188.652Z" fill="#FFFFFF" fill-opacity="1.000000" fill-rule="nonzero"/>
	<path id="Vector" d="M227.592 188.704C229.104 188.669 230.619 188.652 232.134 188.652C231.413 195.52 229.916 202.323 229.949 209.267C233.673 209.479 237.4 208.913 240.913 207.599C242.15 207.238 242.322 205.559 241.773 204.539C239.887 202.93 237.203 202.521 235.672 200.405C234.436 198.872 234.641 196.703 235.118 194.896C235.806 191.532 238.689 188.57 242.072 188.582C244.13 188.506 246.315 188.524 248.172 189.631C249.659 190.442 251.639 191.561 251.212 193.712C249.897 194.062 248.622 194.878 247.246 194.744C246.292 194.161 245.5 193.228 244.368 193.036C242.527 192.861 240.813 193.887 239.554 195.216C239.721 196.283 239.599 197.548 240.436 198.37C242.466 200.265 245.982 200.184 247.169 203.069C248.073 205.984 247.341 210.264 244.279 211.435C237.785 212.374 231.208 211.604 224.692 211.488C225.59 203.868 226.156 196.213 227.592 188.704Z" fill="#FFFFFF" fill-opacity="1.000000" fill-rule="nonzero"/>
	<path id="Vector" d="M265.536 193.188C266.368 192.237 267.827 192.716 268.93 192.675C269.485 196.557 269.651 200.545 270.793 204.3C271.991 201.064 273.666 197.817 273.267 194.22C272.812 193.765 272.368 193.316 271.93 192.855C272.784 192.651 273.644 192.459 274.509 192.272C274.744 194.295 274.796 196.337 274.664 198.371C275.286 196.225 275.724 192.541 278.508 192.733C276.096 197.859 274.023 203.154 272.302 208.579C271.681 210.608 270.982 212.765 269.346 214.158C267.427 215.907 264.715 216.082 262.336 215.54C262.519 214.712 262.719 213.884 262.924 213.062C264.033 213.354 265.314 214.199 266.412 213.441C267.888 212.514 268.154 210.444 267.788 208.818C266.79 203.658 265.398 198.505 265.536 193.188Z" fill="#FFFFFF" fill-opacity="1.000000" fill-rule="nonzero"/>
	<path id="Vector" d="M157.7 214.928C159.491 215.686 161.443 215.511 163.335 215.557C170.544 215.511 177.787 215.406 185.013 215.464C185.874 215.402 186.729 215.66 187.428 216.193C188.128 216.725 188.627 217.499 188.839 218.379C179.789 218.198 170.733 218.507 161.665 218.309C160.068 218.49 159.042 217.143 158.011 216.105C157.944 215.814 157.811 215.231 157.7 214.928Z" fill="#FFFFFF" fill-opacity="1.000000" fill-rule="nonzero"/>
	<path id="Vector" d="M196.143 216.065C202.931 215.348 209.774 215.96 216.584 215.61C215.608 216.887 214.488 218.525 212.763 218.577C209.436 218.682 206.059 218.577 202.709 218.525C200.297 218.577 198.206 217.184 196.143 216.065Z" fill="#FFFFFF" fill-opacity="1.000000" fill-rule="nonzero"/>
	<g opacity="0.300000">
		<circle id="Ellipse 5" cx="32.000000" cy="32.000000" r="32.000000" fill="#1FA8AD" fill-opacity="1.000000"/>
	</g>
	<circle id="Ellipse 4" cx="32.000000" cy="32.000000" r="24.000000" fill="#1FA8AD" fill-opacity="1.000000"/>
	<g opacity="0.300000">
		<circle id="Ellipse 5" cx="32.000000" cy="376.000000" r="32.000000" fill="#1FA8AD" fill-opacity="1.000000"/>
	</g>
	<circle id="Ellipse 4" cx="32.000000" cy="376.000000" r="24.000000" fill="#1FA8AD" fill-opacity="1.000000"/>
	<g opacity="0.300000">
		<circle id="Ellipse 5" cx="384.000000" cy="32.000000" r="32.000000" fill="#1FA8AD" fill-opacity="1.000000"/>
	</g>
	<circle id="Ellipse 4" cx="384.000000" cy="32.000000" r="24.000000" fill="#1FA8AD" fill-opacity="1.000000"/>
	<g opacity="0.300000">
		<circle id="Ellipse 5" cx="384.000000" cy="376.000000" r="32.000000" fill="#1FA8AD" fill-opacity="1.000000"/>
	</g>
	<circle id="Ellipse 4" cx="384.000000" cy="376.000000" r="24.000000" fill="#1FA8AD" fill-opacity="1.000000"/>
</svg>
